<mxfile host="Electron" modified="2024-03-26T03:35:36.008Z" agent="Mozilla/5.0 (Windows NT 10.0; Win64; x64) AppleWebKit/537.36 (KHTML, like Gecko) draw.io/22.0.3 Chrome/114.0.5735.289 Electron/25.8.4 Safari/537.36" etag="sjaSI6SoiP2eIqZaz11z" version="22.0.3" type="device">
  <diagram name="Page-1" id="w0hIXGshskew6WdIh-Ep">
    <mxGraphModel dx="256" dy="153" grid="1" gridSize="10" guides="1" tooltips="1" connect="1" arrows="1" fold="1" page="1" pageScale="1" pageWidth="850" pageHeight="1100" math="0" shadow="0">
      <root>
        <mxCell id="0" />
        <mxCell id="1" parent="0" />
        <mxCell id="aXq4yxMnwxFdU93BScat-38" value="" style="rounded=0;whiteSpace=wrap;html=1;" vertex="1" parent="1">
          <mxGeometry x="40" y="530" width="680" height="160" as="geometry" />
        </mxCell>
        <mxCell id="aXq4yxMnwxFdU93BScat-30" value="" style="rounded=0;whiteSpace=wrap;html=1;" vertex="1" parent="1">
          <mxGeometry x="40" y="480" width="680" height="60" as="geometry" />
        </mxCell>
        <mxCell id="aXq4yxMnwxFdU93BScat-1" value="User" style="rounded=0;whiteSpace=wrap;html=1;" vertex="1" parent="1">
          <mxGeometry x="80" y="160" width="100" height="40" as="geometry" />
        </mxCell>
        <mxCell id="aXq4yxMnwxFdU93BScat-2" value=":System" style="rounded=0;whiteSpace=wrap;html=1;" vertex="1" parent="1">
          <mxGeometry x="260" y="160" width="100" height="40" as="geometry" />
        </mxCell>
        <mxCell id="aXq4yxMnwxFdU93BScat-3" value=":Mail server" style="rounded=0;whiteSpace=wrap;html=1;" vertex="1" parent="1">
          <mxGeometry x="450" y="160" width="100" height="40" as="geometry" />
        </mxCell>
        <mxCell id="aXq4yxMnwxFdU93BScat-4" value=":Database" style="rounded=0;whiteSpace=wrap;html=1;" vertex="1" parent="1">
          <mxGeometry x="630" y="160" width="100" height="40" as="geometry" />
        </mxCell>
        <mxCell id="aXq4yxMnwxFdU93BScat-6" value="" style="endArrow=none;dashed=1;html=1;rounded=0;exitX=0.5;exitY=1;exitDx=0;exitDy=0;" edge="1" parent="1" source="aXq4yxMnwxFdU93BScat-16">
          <mxGeometry width="50" height="50" relative="1" as="geometry">
            <mxPoint x="260" y="290" as="sourcePoint" />
            <mxPoint x="130" y="760" as="targetPoint" />
          </mxGeometry>
        </mxCell>
        <mxCell id="aXq4yxMnwxFdU93BScat-7" value="" style="endArrow=none;dashed=1;html=1;rounded=0;exitX=0.5;exitY=1;exitDx=0;exitDy=0;entryX=0.5;entryY=1;entryDx=0;entryDy=0;" edge="1" parent="1" source="aXq4yxMnwxFdU93BScat-18" target="aXq4yxMnwxFdU93BScat-41">
          <mxGeometry width="50" height="50" relative="1" as="geometry">
            <mxPoint x="320" y="220" as="sourcePoint" />
            <mxPoint x="310" y="750" as="targetPoint" />
          </mxGeometry>
        </mxCell>
        <mxCell id="aXq4yxMnwxFdU93BScat-8" value="" style="endArrow=none;dashed=1;html=1;rounded=0;exitX=0.5;exitY=1;exitDx=0;exitDy=0;entryX=0.25;entryY=1;entryDx=0;entryDy=0;" edge="1" parent="1" source="aXq4yxMnwxFdU93BScat-42" target="aXq4yxMnwxFdU93BScat-42">
          <mxGeometry width="50" height="50" relative="1" as="geometry">
            <mxPoint x="499.58" y="240" as="sourcePoint" />
            <mxPoint x="500" y="1080" as="targetPoint" />
          </mxGeometry>
        </mxCell>
        <mxCell id="aXq4yxMnwxFdU93BScat-9" value="" style="endArrow=none;dashed=1;html=1;rounded=0;exitX=0.5;exitY=1;exitDx=0;exitDy=0;entryX=0.5;entryY=1;entryDx=0;entryDy=0;" edge="1" parent="1" source="aXq4yxMnwxFdU93BScat-31" target="aXq4yxMnwxFdU93BScat-31">
          <mxGeometry width="50" height="50" relative="1" as="geometry">
            <mxPoint x="680" y="240" as="sourcePoint" />
            <mxPoint x="680" y="770" as="targetPoint" />
          </mxGeometry>
        </mxCell>
        <mxCell id="aXq4yxMnwxFdU93BScat-11" value="" style="shape=waypoint;sketch=0;fillStyle=solid;size=6;pointerEvents=1;points=[];fillColor=none;resizable=0;rotatable=0;perimeter=centerPerimeter;snapToPoint=1;strokeWidth=6;" vertex="1" parent="1">
          <mxGeometry x="50" y="220" width="20" height="20" as="geometry" />
        </mxCell>
        <mxCell id="aXq4yxMnwxFdU93BScat-12" value="" style="endArrow=classic;html=1;rounded=0;exitX=0.65;exitY=0.708;exitDx=0;exitDy=0;exitPerimeter=0;entryX=-0.126;entryY=0.02;entryDx=0;entryDy=0;entryPerimeter=0;" edge="1" parent="1" source="aXq4yxMnwxFdU93BScat-11" target="aXq4yxMnwxFdU93BScat-16">
          <mxGeometry width="50" height="50" relative="1" as="geometry">
            <mxPoint x="410" y="430" as="sourcePoint" />
            <mxPoint x="120" y="230" as="targetPoint" />
          </mxGeometry>
        </mxCell>
        <mxCell id="aXq4yxMnwxFdU93BScat-17" value="" style="endArrow=none;dashed=1;html=1;rounded=0;exitX=0.5;exitY=1;exitDx=0;exitDy=0;" edge="1" parent="1" source="aXq4yxMnwxFdU93BScat-1" target="aXq4yxMnwxFdU93BScat-16">
          <mxGeometry width="50" height="50" relative="1" as="geometry">
            <mxPoint x="130" y="200" as="sourcePoint" />
            <mxPoint x="130" y="1120" as="targetPoint" />
          </mxGeometry>
        </mxCell>
        <mxCell id="aXq4yxMnwxFdU93BScat-16" value="" style="rounded=0;whiteSpace=wrap;html=1;" vertex="1" parent="1">
          <mxGeometry x="125" y="220" width="10" height="510" as="geometry" />
        </mxCell>
        <mxCell id="aXq4yxMnwxFdU93BScat-19" value="" style="endArrow=none;dashed=1;html=1;rounded=0;exitX=0.5;exitY=1;exitDx=0;exitDy=0;" edge="1" parent="1" source="aXq4yxMnwxFdU93BScat-2" target="aXq4yxMnwxFdU93BScat-18">
          <mxGeometry width="50" height="50" relative="1" as="geometry">
            <mxPoint x="310" y="200" as="sourcePoint" />
            <mxPoint x="310" y="1120" as="targetPoint" />
          </mxGeometry>
        </mxCell>
        <mxCell id="aXq4yxMnwxFdU93BScat-18" value="" style="rounded=0;whiteSpace=wrap;html=1;" vertex="1" parent="1">
          <mxGeometry x="305" y="230" width="10" height="90" as="geometry" />
        </mxCell>
        <mxCell id="aXq4yxMnwxFdU93BScat-20" value="" style="endArrow=classic;html=1;rounded=0;exitX=1.048;exitY=0.051;exitDx=0;exitDy=0;exitPerimeter=0;entryX=-0.086;entryY=0.175;entryDx=0;entryDy=0;entryPerimeter=0;" edge="1" parent="1" source="aXq4yxMnwxFdU93BScat-16" target="aXq4yxMnwxFdU93BScat-18">
          <mxGeometry width="50" height="50" relative="1" as="geometry">
            <mxPoint x="140" y="246" as="sourcePoint" />
            <mxPoint x="300" y="246" as="targetPoint" />
          </mxGeometry>
        </mxCell>
        <mxCell id="aXq4yxMnwxFdU93BScat-21" value="" style="endArrow=classic;html=1;rounded=0;exitX=0.007;exitY=0.884;exitDx=0;exitDy=0;exitPerimeter=0;dashed=1;entryX=1.055;entryY=0.176;entryDx=0;entryDy=0;entryPerimeter=0;" edge="1" parent="1" source="aXq4yxMnwxFdU93BScat-18" target="aXq4yxMnwxFdU93BScat-16">
          <mxGeometry width="50" height="50" relative="1" as="geometry">
            <mxPoint x="305" y="310.63000000000005" as="sourcePoint" />
            <mxPoint x="140" y="311" as="targetPoint" />
          </mxGeometry>
        </mxCell>
        <mxCell id="aXq4yxMnwxFdU93BScat-22" value="go to &quot;user/login&quot;" style="text;html=1;strokeColor=none;fillColor=none;align=center;verticalAlign=middle;whiteSpace=wrap;rounded=0;" vertex="1" parent="1">
          <mxGeometry x="170" y="220" width="110" height="30" as="geometry" />
        </mxCell>
        <mxCell id="aXq4yxMnwxFdU93BScat-23" value="return login form" style="text;html=1;strokeColor=none;fillColor=none;align=center;verticalAlign=middle;whiteSpace=wrap;rounded=0;" vertex="1" parent="1">
          <mxGeometry x="170" y="280" width="110" height="30" as="geometry" />
        </mxCell>
        <mxCell id="aXq4yxMnwxFdU93BScat-24" value="" style="endArrow=classic;html=1;rounded=0;entryX=0.013;entryY=0.063;entryDx=0;entryDy=0;entryPerimeter=0;exitX=1.016;exitY=0.333;exitDx=0;exitDy=0;exitPerimeter=0;" edge="1" parent="1" source="aXq4yxMnwxFdU93BScat-16">
          <mxGeometry width="50" height="50" relative="1" as="geometry">
            <mxPoint x="140" y="390" as="sourcePoint" />
            <mxPoint x="305" y="390" as="targetPoint" />
          </mxGeometry>
        </mxCell>
        <mxCell id="aXq4yxMnwxFdU93BScat-25" value="" style="rounded=0;whiteSpace=wrap;html=1;" vertex="1" parent="1">
          <mxGeometry x="305" y="380" width="10" height="140" as="geometry" />
        </mxCell>
        <mxCell id="aXq4yxMnwxFdU93BScat-26" value="" style="endArrow=classic;html=1;rounded=0;edgeStyle=orthogonalEdgeStyle;entryX=0.901;entryY=0.695;entryDx=0;entryDy=0;entryPerimeter=0;" edge="1" parent="1" target="aXq4yxMnwxFdU93BScat-31">
          <mxGeometry width="50" height="50" relative="1" as="geometry">
            <mxPoint x="685" y="410" as="sourcePoint" />
            <mxPoint x="685" y="450" as="targetPoint" />
            <Array as="points">
              <mxPoint x="735" y="410" />
              <mxPoint x="735" y="460" />
              <mxPoint x="685" y="460" />
            </Array>
          </mxGeometry>
        </mxCell>
        <mxCell id="aXq4yxMnwxFdU93BScat-27" value="check validity" style="text;html=1;strokeColor=none;fillColor=none;align=center;verticalAlign=middle;whiteSpace=wrap;rounded=0;" vertex="1" parent="1">
          <mxGeometry x="720" y="420" width="110" height="30" as="geometry" />
        </mxCell>
        <mxCell id="aXq4yxMnwxFdU93BScat-28" value="submit login form" style="text;html=1;strokeColor=none;fillColor=none;align=center;verticalAlign=middle;whiteSpace=wrap;rounded=0;" vertex="1" parent="1">
          <mxGeometry x="170" y="360" width="110" height="30" as="geometry" />
        </mxCell>
        <mxCell id="aXq4yxMnwxFdU93BScat-32" value="" style="endArrow=none;dashed=1;html=1;rounded=0;exitX=0.5;exitY=1;exitDx=0;exitDy=0;" edge="1" parent="1" source="aXq4yxMnwxFdU93BScat-4" target="aXq4yxMnwxFdU93BScat-31">
          <mxGeometry width="50" height="50" relative="1" as="geometry">
            <mxPoint x="680" y="200" as="sourcePoint" />
            <mxPoint x="679.58" y="1200" as="targetPoint" />
          </mxGeometry>
        </mxCell>
        <mxCell id="aXq4yxMnwxFdU93BScat-31" value="" style="rounded=0;whiteSpace=wrap;html=1;" vertex="1" parent="1">
          <mxGeometry x="675" y="390" width="10" height="100" as="geometry" />
        </mxCell>
        <mxCell id="aXq4yxMnwxFdU93BScat-35" value="" style="endArrow=classic;html=1;rounded=0;dashed=1;exitX=-0.108;exitY=0.921;exitDx=0;exitDy=0;exitPerimeter=0;entryX=0.971;entryY=0.567;entryDx=0;entryDy=0;entryPerimeter=0;" edge="1" parent="1" source="aXq4yxMnwxFdU93BScat-25" target="aXq4yxMnwxFdU93BScat-16">
          <mxGeometry width="50" height="50" relative="1" as="geometry">
            <mxPoint x="300" y="510" as="sourcePoint" />
            <mxPoint x="135" y="510.07" as="targetPoint" />
          </mxGeometry>
        </mxCell>
        <mxCell id="aXq4yxMnwxFdU93BScat-36" value="return error with the form" style="text;html=1;strokeColor=none;fillColor=none;align=center;verticalAlign=middle;whiteSpace=wrap;rounded=0;" vertex="1" parent="1">
          <mxGeometry x="155" y="480" width="140" height="30" as="geometry" />
        </mxCell>
        <mxCell id="aXq4yxMnwxFdU93BScat-37" value="If not valid" style="text;html=1;strokeColor=none;fillColor=none;align=center;verticalAlign=middle;whiteSpace=wrap;rounded=0;" vertex="1" parent="1">
          <mxGeometry x="40" y="470" width="80" height="60" as="geometry" />
        </mxCell>
        <mxCell id="aXq4yxMnwxFdU93BScat-40" value="If valid" style="text;html=1;strokeColor=none;fillColor=none;align=center;verticalAlign=middle;whiteSpace=wrap;rounded=0;" vertex="1" parent="1">
          <mxGeometry x="50" y="545" width="60" height="30" as="geometry" />
        </mxCell>
        <mxCell id="aXq4yxMnwxFdU93BScat-41" value="" style="rounded=0;whiteSpace=wrap;html=1;" vertex="1" parent="1">
          <mxGeometry x="305" y="550" width="10" height="130" as="geometry" />
        </mxCell>
        <mxCell id="aXq4yxMnwxFdU93BScat-43" value="" style="endArrow=none;dashed=1;html=1;rounded=0;exitX=0.5;exitY=1;exitDx=0;exitDy=0;" edge="1" parent="1" source="aXq4yxMnwxFdU93BScat-3" target="aXq4yxMnwxFdU93BScat-42">
          <mxGeometry width="50" height="50" relative="1" as="geometry">
            <mxPoint x="500" y="200" as="sourcePoint" />
            <mxPoint x="499.58" y="1160" as="targetPoint" />
          </mxGeometry>
        </mxCell>
        <mxCell id="aXq4yxMnwxFdU93BScat-42" value="" style="rounded=0;whiteSpace=wrap;html=1;" vertex="1" parent="1">
          <mxGeometry x="495" y="570" width="10" height="90" as="geometry" />
        </mxCell>
        <mxCell id="aXq4yxMnwxFdU93BScat-44" value="" style="endArrow=classic;html=1;rounded=0;entryX=-0.123;entryY=0.335;entryDx=0;entryDy=0;entryPerimeter=0;" edge="1" parent="1" target="aXq4yxMnwxFdU93BScat-42">
          <mxGeometry width="50" height="50" relative="1" as="geometry">
            <mxPoint x="315" y="600" as="sourcePoint" />
            <mxPoint x="490" y="600" as="targetPoint" />
          </mxGeometry>
        </mxCell>
        <mxCell id="aXq4yxMnwxFdU93BScat-45" value="send login detail" style="text;html=1;strokeColor=none;fillColor=none;align=center;verticalAlign=middle;whiteSpace=wrap;rounded=0;" vertex="1" parent="1">
          <mxGeometry x="340" y="570" width="110" height="30" as="geometry" />
        </mxCell>
        <mxCell id="aXq4yxMnwxFdU93BScat-46" value="" style="endArrow=classic;html=1;rounded=0;dashed=1;exitX=-0.151;exitY=0.78;exitDx=0;exitDy=0;exitPerimeter=0;" edge="1" parent="1" source="aXq4yxMnwxFdU93BScat-42">
          <mxGeometry width="50" height="50" relative="1" as="geometry">
            <mxPoint x="480" y="640" as="sourcePoint" />
            <mxPoint x="315" y="640.37" as="targetPoint" />
          </mxGeometry>
        </mxCell>
        <mxCell id="aXq4yxMnwxFdU93BScat-47" value="return email sent successfully" style="text;html=1;strokeColor=none;fillColor=none;align=center;verticalAlign=middle;whiteSpace=wrap;rounded=0;" vertex="1" parent="1">
          <mxGeometry x="350" y="610" width="110" height="30" as="geometry" />
        </mxCell>
        <mxCell id="aXq4yxMnwxFdU93BScat-48" value="" style="endArrow=classic;html=1;rounded=0;dashed=1;" edge="1" parent="1">
          <mxGeometry width="50" height="50" relative="1" as="geometry">
            <mxPoint x="300" y="660" as="sourcePoint" />
            <mxPoint x="135" y="660.37" as="targetPoint" />
          </mxGeometry>
        </mxCell>
        <mxCell id="aXq4yxMnwxFdU93BScat-49" value="authorize login" style="text;html=1;strokeColor=none;fillColor=none;align=center;verticalAlign=middle;whiteSpace=wrap;rounded=0;" vertex="1" parent="1">
          <mxGeometry x="160" y="630" width="110" height="30" as="geometry" />
        </mxCell>
        <mxCell id="aXq4yxMnwxFdU93BScat-60" value="" style="endArrow=classic;html=1;rounded=0;entryX=-0.09;entryY=0.197;entryDx=0;entryDy=0;entryPerimeter=0;" edge="1" parent="1" target="aXq4yxMnwxFdU93BScat-31">
          <mxGeometry width="50" height="50" relative="1" as="geometry">
            <mxPoint x="315" y="410" as="sourcePoint" />
            <mxPoint x="670" y="410" as="targetPoint" />
          </mxGeometry>
        </mxCell>
        <mxCell id="aXq4yxMnwxFdU93BScat-61" value="" style="endArrow=classic;html=1;rounded=0;exitX=-0.083;exitY=0.699;exitDx=0;exitDy=0;exitPerimeter=0;dashed=1;entryX=1;entryY=0.569;entryDx=0;entryDy=0;entryPerimeter=0;" edge="1" parent="1" source="aXq4yxMnwxFdU93BScat-31" target="aXq4yxMnwxFdU93BScat-25">
          <mxGeometry width="50" height="50" relative="1" as="geometry">
            <mxPoint x="670" y="460.00000000000006" as="sourcePoint" />
            <mxPoint x="320" y="460" as="targetPoint" />
          </mxGeometry>
        </mxCell>
        <mxCell id="aXq4yxMnwxFdU93BScat-62" value="process login form" style="text;html=1;strokeColor=none;fillColor=none;align=center;verticalAlign=middle;whiteSpace=wrap;rounded=0;" vertex="1" parent="1">
          <mxGeometry x="440" y="380" width="110" height="30" as="geometry" />
        </mxCell>
        <mxCell id="aXq4yxMnwxFdU93BScat-63" value="return validity result" style="text;html=1;strokeColor=none;fillColor=none;align=center;verticalAlign=middle;whiteSpace=wrap;rounded=0;" vertex="1" parent="1">
          <mxGeometry x="440" y="430" width="110" height="30" as="geometry" />
        </mxCell>
        <mxCell id="aXq4yxMnwxFdU93BScat-66" value="" style="endArrow=classic;html=1;rounded=0;" edge="1" parent="1">
          <mxGeometry width="50" height="50" relative="1" as="geometry">
            <mxPoint x="130" y="760" as="sourcePoint" />
            <mxPoint x="70.00000000000006" y="759.9999999999999" as="targetPoint" />
          </mxGeometry>
        </mxCell>
        <mxCell id="aXq4yxMnwxFdU93BScat-68" value="" style="shape=waypoint;sketch=0;fillStyle=solid;size=6;pointerEvents=1;points=[];fillColor=none;resizable=0;rotatable=0;perimeter=centerPerimeter;snapToPoint=1;strokeWidth=9;" vertex="1" parent="1">
          <mxGeometry x="50" y="750" width="20" height="20" as="geometry" />
        </mxCell>
      </root>
    </mxGraphModel>
  </diagram>
</mxfile>
